<svg width="476" height="247" viewBox="0 0 476 247" fill="none" xmlns="http://www.w3.org/2000/svg">
<mask id="path-1-outside-1_16_2" maskUnits="userSpaceOnUse" x="-3.13363" y="-3.53699" width="482" height="254" fill="black">
<rect fill="white" x="-3.13363" y="-3.53699" width="482" height="254"/>
<path d="M0.0343714 6.935V0.0230103H40.7384V168.727C40.7384 174.7 40.9944 178.199 41.5064 179.223C42.0184 180.247 43.6397 180.93 46.3704 181.271L60.4504 182.807V189.463H0.0343714V182.807L14.1144 181.271C16.845 180.93 18.4664 180.247 18.9784 179.223C19.4904 178.199 19.7464 174.7 19.7464 168.727V20.759C19.7464 14.7857 19.4904 11.287 18.9784 10.263C18.4664 9.239 16.845 8.55634 14.1144 8.21501L0.0343714 6.935ZM194.586 123.415V128.535C194.586 147.82 189.722 163.266 179.994 174.871C170.437 186.306 156.784 192.023 139.034 192.023C121.456 192.023 107.802 186.306 98.0744 174.871C88.517 163.266 83.7384 147.82 83.7384 128.535V123.415C83.7384 104.3 88.517 89.0257 98.0744 77.591C107.632 65.9857 121.285 60.183 139.034 60.183C156.784 60.183 170.437 65.9857 179.994 77.591C189.722 89.0257 194.586 104.3 194.586 123.415ZM171.546 118.295C171.546 100.546 168.73 87.831 163.098 80.151C157.637 72.3003 149.616 68.375 139.034 68.375C128.624 68.375 120.602 72.3003 114.97 80.151C109.509 87.831 106.778 100.546 106.778 118.295V133.655C106.778 151.575 109.509 164.46 114.97 172.311C120.602 179.991 128.624 183.831 139.034 183.831C149.616 183.831 157.637 179.991 163.098 172.311C168.73 164.46 171.546 151.575 171.546 133.655V118.295ZM338.622 204.311C338.622 217.964 333.588 228.375 323.518 235.543C313.62 242.882 299.796 246.551 282.046 246.551C262.59 246.551 248.34 243.138 239.294 236.311C230.249 229.655 225.556 221.207 225.214 210.967L244.158 207.127C243.476 216.514 245.95 224.023 251.582 229.655C257.385 235.458 267.54 238.359 282.046 238.359C295.017 238.359 305.428 235.97 313.278 231.191C321.3 226.412 325.31 219.415 325.31 210.199C325.31 203.372 323.006 198.252 318.398 194.839C313.79 191.426 306.196 189.719 295.614 189.719H265.15C253.716 189.719 245.694 187.33 241.086 182.551C236.478 177.602 234.174 172.14 234.174 166.167C234.174 161.218 235.369 156.61 237.758 152.343C240.318 147.906 244.329 143.554 249.79 139.287C242.964 136.044 237.417 131.351 233.15 125.207C228.884 118.892 226.75 111.298 226.75 102.423C226.75 93.0363 228.884 85.271 233.15 79.127C237.588 72.8123 243.39 68.119 250.558 65.047C257.897 61.8043 266.004 60.183 274.878 60.183H279.23C288.617 60.183 296.98 61.8897 304.318 65.303L341.438 52.503L344.254 71.703H314.302C318.228 75.1163 321.3 79.383 323.518 84.503C325.908 89.623 327.102 95.5963 327.102 102.423C327.102 111.468 324.884 119.148 320.446 125.463C316.18 131.778 310.462 136.556 303.294 139.799C296.126 142.871 288.105 144.407 279.23 144.407H274.878C271.977 144.407 269.161 144.236 266.43 143.895C263.7 143.554 261.054 143.042 258.494 142.359C254.74 144.919 252.009 147.564 250.302 150.295C248.766 153.026 247.998 155.842 247.998 158.743C247.998 162.156 249.193 164.887 251.582 166.935C254.142 168.983 258.153 170.007 263.614 170.007H296.894C310.377 170.007 320.702 172.908 327.87 178.711C335.038 184.514 338.622 193.047 338.622 204.311ZM279.23 136.215C283.838 136.215 288.02 135.191 291.774 133.143C295.7 131.095 298.857 127.682 301.246 122.903C303.636 117.954 304.83 111.127 304.83 102.423C304.83 93.5483 303.636 86.7217 301.246 81.943C298.857 76.9937 295.7 73.495 291.774 71.447C288.02 69.399 283.838 68.375 279.23 68.375H274.878C270.27 68.375 266.004 69.399 262.078 71.447C258.153 73.495 254.996 76.9937 252.606 81.943C250.217 86.7217 249.022 93.5483 249.022 102.423C249.022 111.127 250.217 117.954 252.606 122.903C254.996 127.682 258.153 131.095 262.078 133.143C266.004 135.191 270.27 136.215 274.878 136.215H279.23ZM475.336 123.415V128.535C475.336 147.82 470.472 163.266 460.744 174.871C451.187 186.306 437.534 192.023 419.784 192.023C402.206 192.023 388.552 186.306 378.824 174.871C369.267 163.266 364.488 147.82 364.488 128.535V123.415C364.488 104.3 369.267 89.0257 378.824 77.591C388.382 65.9857 402.035 60.183 419.784 60.183C437.534 60.183 451.187 65.9857 460.744 77.591C470.472 89.0257 475.336 104.3 475.336 123.415ZM452.296 118.295C452.296 100.546 449.48 87.831 443.848 80.151C438.387 72.3003 430.366 68.375 419.784 68.375C409.374 68.375 401.352 72.3003 395.72 80.151C390.259 87.831 387.528 100.546 387.528 118.295V133.655C387.528 151.575 390.259 164.46 395.72 172.311C401.352 179.991 409.374 183.831 419.784 183.831C430.366 183.831 438.387 179.991 443.848 172.311C449.48 164.46 452.296 151.575 452.296 133.655V118.295Z"/>
</mask>
<path d="M0.0343714 6.935V0.0230103H40.7384V168.727C40.7384 174.7 40.9944 178.199 41.5064 179.223C42.0184 180.247 43.6397 180.93 46.3704 181.271L60.4504 182.807V189.463H0.0343714V182.807L14.1144 181.271C16.845 180.93 18.4664 180.247 18.9784 179.223C19.4904 178.199 19.7464 174.7 19.7464 168.727V20.759C19.7464 14.7857 19.4904 11.287 18.9784 10.263C18.4664 9.239 16.845 8.55634 14.1144 8.21501L0.0343714 6.935ZM194.586 123.415V128.535C194.586 147.82 189.722 163.266 179.994 174.871C170.437 186.306 156.784 192.023 139.034 192.023C121.456 192.023 107.802 186.306 98.0744 174.871C88.517 163.266 83.7384 147.82 83.7384 128.535V123.415C83.7384 104.3 88.517 89.0257 98.0744 77.591C107.632 65.9857 121.285 60.183 139.034 60.183C156.784 60.183 170.437 65.9857 179.994 77.591C189.722 89.0257 194.586 104.3 194.586 123.415ZM171.546 118.295C171.546 100.546 168.73 87.831 163.098 80.151C157.637 72.3003 149.616 68.375 139.034 68.375C128.624 68.375 120.602 72.3003 114.97 80.151C109.509 87.831 106.778 100.546 106.778 118.295V133.655C106.778 151.575 109.509 164.46 114.97 172.311C120.602 179.991 128.624 183.831 139.034 183.831C149.616 183.831 157.637 179.991 163.098 172.311C168.73 164.46 171.546 151.575 171.546 133.655V118.295ZM338.622 204.311C338.622 217.964 333.588 228.375 323.518 235.543C313.62 242.882 299.796 246.551 282.046 246.551C262.59 246.551 248.34 243.138 239.294 236.311C230.249 229.655 225.556 221.207 225.214 210.967L244.158 207.127C243.476 216.514 245.95 224.023 251.582 229.655C257.385 235.458 267.54 238.359 282.046 238.359C295.017 238.359 305.428 235.97 313.278 231.191C321.3 226.412 325.31 219.415 325.31 210.199C325.31 203.372 323.006 198.252 318.398 194.839C313.79 191.426 306.196 189.719 295.614 189.719H265.15C253.716 189.719 245.694 187.33 241.086 182.551C236.478 177.602 234.174 172.14 234.174 166.167C234.174 161.218 235.369 156.61 237.758 152.343C240.318 147.906 244.329 143.554 249.79 139.287C242.964 136.044 237.417 131.351 233.15 125.207C228.884 118.892 226.75 111.298 226.75 102.423C226.75 93.0363 228.884 85.271 233.15 79.127C237.588 72.8123 243.39 68.119 250.558 65.047C257.897 61.8043 266.004 60.183 274.878 60.183H279.23C288.617 60.183 296.98 61.8897 304.318 65.303L341.438 52.503L344.254 71.703H314.302C318.228 75.1163 321.3 79.383 323.518 84.503C325.908 89.623 327.102 95.5963 327.102 102.423C327.102 111.468 324.884 119.148 320.446 125.463C316.18 131.778 310.462 136.556 303.294 139.799C296.126 142.871 288.105 144.407 279.23 144.407H274.878C271.977 144.407 269.161 144.236 266.43 143.895C263.7 143.554 261.054 143.042 258.494 142.359C254.74 144.919 252.009 147.564 250.302 150.295C248.766 153.026 247.998 155.842 247.998 158.743C247.998 162.156 249.193 164.887 251.582 166.935C254.142 168.983 258.153 170.007 263.614 170.007H296.894C310.377 170.007 320.702 172.908 327.87 178.711C335.038 184.514 338.622 193.047 338.622 204.311ZM279.23 136.215C283.838 136.215 288.02 135.191 291.774 133.143C295.7 131.095 298.857 127.682 301.246 122.903C303.636 117.954 304.83 111.127 304.83 102.423C304.83 93.5483 303.636 86.7217 301.246 81.943C298.857 76.9937 295.7 73.495 291.774 71.447C288.02 69.399 283.838 68.375 279.23 68.375H274.878C270.27 68.375 266.004 69.399 262.078 71.447C258.153 73.495 254.996 76.9937 252.606 81.943C250.217 86.7217 249.022 93.5483 249.022 102.423C249.022 111.127 250.217 117.954 252.606 122.903C254.996 127.682 258.153 131.095 262.078 133.143C266.004 135.191 270.27 136.215 274.878 136.215H279.23ZM475.336 123.415V128.535C475.336 147.82 470.472 163.266 460.744 174.871C451.187 186.306 437.534 192.023 419.784 192.023C402.206 192.023 388.552 186.306 378.824 174.871C369.267 163.266 364.488 147.82 364.488 128.535V123.415C364.488 104.3 369.267 89.0257 378.824 77.591C388.382 65.9857 402.035 60.183 419.784 60.183C437.534 60.183 451.187 65.9857 460.744 77.591C470.472 89.0257 475.336 104.3 475.336 123.415ZM452.296 118.295C452.296 100.546 449.48 87.831 443.848 80.151C438.387 72.3003 430.366 68.375 419.784 68.375C409.374 68.375 401.352 72.3003 395.72 80.151C390.259 87.831 387.528 100.546 387.528 118.295V133.655C387.528 151.575 390.259 164.46 395.72 172.311C401.352 179.991 409.374 183.831 419.784 183.831C430.366 183.831 438.387 179.991 443.848 172.311C449.48 164.46 452.296 151.575 452.296 133.655V118.295Z" fill="#FFFAF0"/>
<path d="M0.0343714 6.935H-2.96563V9.67464L-0.237239 9.92268L0.0343714 6.935ZM0.0343714 0.0230103V-2.97699H-2.96563V0.0230103H0.0343714ZM40.7384 0.0230103H43.7384V-2.97699H40.7384V0.0230103ZM41.5064 179.223L44.1897 177.881L44.1897 177.881L41.5064 179.223ZM46.3704 181.271L45.9983 184.248L46.0216 184.251L46.045 184.253L46.3704 181.271ZM60.4504 182.807H63.4504V180.116L60.7757 179.825L60.4504 182.807ZM60.4504 189.463V192.463H63.4504V189.463H60.4504ZM0.0343714 189.463H-2.96563V192.463H0.0343714V189.463ZM0.0343714 182.807L-0.290971 179.825L-2.96563 180.116V182.807H0.0343714ZM14.1144 181.271L14.4397 184.253L14.4631 184.251L14.4865 184.248L14.1144 181.271ZM18.9784 10.263L21.6617 8.92137L21.6617 8.92136L18.9784 10.263ZM14.1144 8.21501L14.4865 5.23818L14.4363 5.23191L14.386 5.22733L14.1144 8.21501ZM3.03437 6.935V0.0230103H-2.96563V6.935H3.03437ZM0.0343714 3.02301H40.7384V-2.97699H0.0343714V3.02301ZM37.7384 0.0230103V168.727H43.7384V0.0230103H37.7384ZM37.7384 168.727C37.7384 171.744 37.8026 174.195 37.9384 176.05C38.0061 176.976 38.0948 177.799 38.2127 178.493C38.319 179.119 38.4879 179.894 38.8231 180.565L44.1897 177.881C44.2688 178.04 44.2137 177.993 44.128 177.489C44.054 177.053 43.9826 176.436 43.9224 175.612C43.8021 173.969 43.7384 171.684 43.7384 168.727H37.7384ZM38.8231 180.565C39.5324 181.983 40.8106 182.791 41.9422 183.268C43.1064 183.758 44.4954 184.06 45.9983 184.248L46.7425 178.294C45.5147 178.141 44.7276 177.931 44.2705 177.738C43.7809 177.532 43.9923 177.487 44.1897 177.881L38.8231 180.565ZM46.045 184.253L60.125 185.789L60.7757 179.825L46.6957 178.289L46.045 184.253ZM57.4504 182.807V189.463H63.4504V182.807H57.4504ZM60.4504 186.463H0.0343714V192.463H60.4504V186.463ZM3.03437 189.463V182.807H-2.96563V189.463H3.03437ZM0.359714 185.789L14.4397 184.253L13.789 178.289L-0.290971 179.825L0.359714 185.789ZM14.4865 184.248C15.9893 184.06 17.3783 183.758 18.5425 183.268C19.6742 182.791 20.9523 181.983 21.6617 180.565L16.2951 177.881C16.4924 177.487 16.7039 177.532 16.2142 177.738C15.7571 177.931 14.9701 178.141 13.7423 178.294L14.4865 184.248ZM21.6617 180.565C21.9968 179.894 22.1657 179.119 22.272 178.493C22.3899 177.799 22.4786 176.976 22.5464 176.05C22.6821 174.195 22.7464 171.744 22.7464 168.727H16.7464C16.7464 171.684 16.6826 173.969 16.5624 175.612C16.5021 176.436 16.4308 177.053 16.3567 177.489C16.271 177.993 16.2159 178.04 16.2951 177.881L21.6617 180.565ZM22.7464 168.727V20.759H16.7464V168.727H22.7464ZM22.7464 20.759C22.7464 17.7423 22.6821 15.2913 22.5464 13.4361C22.4786 12.5105 22.3899 11.6872 22.272 10.9928C22.1657 10.3666 21.9968 9.59172 21.6617 8.92137L16.2951 11.6046C16.2159 11.4463 16.271 11.4927 16.3567 11.9972C16.4308 12.4335 16.5021 13.0502 16.5624 13.8739C16.6826 15.5174 16.7464 17.8024 16.7464 20.759H22.7464ZM21.6617 8.92136C20.9523 7.50266 19.6742 6.69457 18.5425 6.2181C17.3783 5.72789 15.9893 5.42603 14.4865 5.23818L13.7423 11.1918C14.9701 11.3453 15.7571 11.5555 16.2142 11.7479C16.7039 11.9541 16.4924 11.9993 16.2951 11.6046L21.6617 8.92136ZM14.386 5.22733L0.305982 3.94732L-0.237239 9.92268L13.8428 11.2027L14.386 5.22733ZM179.994 174.871L177.695 172.944L177.693 172.947L179.994 174.871ZM98.0744 174.871L95.7586 176.778L95.7738 176.797L95.7894 176.815L98.0744 174.871ZM98.0744 77.591L100.376 79.5149L100.383 79.5066L100.39 79.4981L98.0744 77.591ZM179.994 77.591L177.679 79.4981L177.694 79.5167L177.709 79.5349L179.994 77.591ZM163.098 80.151L160.636 81.8642L160.657 81.8949L160.679 81.9251L163.098 80.151ZM114.97 80.151L112.533 78.4023L112.526 78.4124L114.97 80.151ZM114.97 172.311L112.508 174.024L112.529 174.055L112.551 174.085L114.97 172.311ZM163.098 172.311L160.661 170.562L160.654 170.572L163.098 172.311ZM191.586 123.415V128.535H197.586V123.415H191.586ZM191.586 128.535C191.586 147.313 186.858 162.013 177.695 172.944L182.293 176.798C192.587 164.519 197.586 148.328 197.586 128.535H191.586ZM177.693 172.947C168.815 183.568 156.083 189.023 139.034 189.023V195.023C157.485 195.023 172.059 189.044 182.296 176.795L177.693 172.947ZM139.034 189.023C122.169 189.023 109.418 183.575 100.359 172.927L95.7894 176.815C106.187 189.037 120.743 195.023 139.034 195.023V189.023ZM100.39 172.964C91.3877 162.032 86.7384 147.325 86.7384 128.535H80.7384C80.7384 148.316 85.6464 164.499 95.7586 176.778L100.39 172.964ZM86.7384 128.535V123.415H80.7384V128.535H86.7384ZM86.7384 123.415C86.7384 104.801 91.3848 90.2725 100.376 79.5149L95.7725 75.6671C85.6492 87.7789 80.7384 103.8 80.7384 123.415H86.7384ZM100.39 79.4981C109.272 68.7126 122.002 63.183 139.034 63.183V57.183C120.568 57.183 105.991 63.2587 95.7586 75.6839L100.39 79.4981ZM139.034 63.183C156.067 63.183 168.796 68.7126 177.679 79.4981L182.31 75.6839C172.078 63.2587 157.5 57.183 139.034 57.183V63.183ZM177.709 79.5349C186.861 90.2923 191.586 104.813 191.586 123.415H197.586C197.586 103.788 192.584 87.759 182.279 75.6471L177.709 79.5349ZM174.546 118.295C174.546 100.383 171.735 86.8548 165.518 78.3769L160.679 81.9251C165.726 88.8072 168.546 100.708 168.546 118.295H174.546ZM165.561 78.4378C159.473 69.6857 150.476 65.375 139.034 65.375V71.375C148.756 71.375 155.801 74.915 160.636 81.8642L165.561 78.4378ZM139.034 65.375C127.745 65.375 118.777 69.6975 112.533 78.4023L117.408 81.8997C122.427 74.9032 129.503 71.375 139.034 71.375V65.375ZM112.526 78.4124C106.502 86.8825 103.778 100.394 103.778 118.295H109.778C109.778 100.697 112.516 88.7795 117.415 81.8896L112.526 78.4124ZM103.778 118.295V133.655H109.778V118.295H103.778ZM103.778 133.655C103.778 151.729 106.504 165.394 112.508 174.024L117.433 170.598C112.514 163.527 109.778 151.421 109.778 133.655H103.778ZM112.551 174.085C118.807 182.615 127.771 186.831 139.034 186.831V180.831C129.476 180.831 122.398 177.367 117.39 170.537L112.551 174.085ZM139.034 186.831C150.449 186.831 159.444 182.627 165.543 174.05L160.654 170.572C155.831 177.355 148.783 180.831 139.034 180.831V186.831ZM165.536 174.06C171.733 165.421 174.546 151.74 174.546 133.655H168.546C168.546 151.41 165.727 163.5 160.661 170.562L165.536 174.06ZM174.546 133.655V118.295H168.546V133.655H174.546ZM323.518 235.543L321.779 233.099L321.755 233.116L321.732 233.133L323.518 235.543ZM239.294 236.311L241.102 233.916L241.087 233.905L241.072 233.895L239.294 236.311ZM225.214 210.967L224.618 208.027L222.132 208.531L222.216 211.067L225.214 210.967ZM244.158 207.127L247.15 207.345L247.437 203.401L243.562 204.187L244.158 207.127ZM251.582 229.655L253.704 227.534L253.704 227.534L251.582 229.655ZM313.278 231.191L311.743 228.614L311.731 228.621L311.719 228.628L313.278 231.191ZM318.398 194.839L316.613 197.25L316.613 197.25L318.398 194.839ZM241.086 182.551L238.891 184.595L238.909 184.615L238.927 184.633L241.086 182.551ZM237.758 152.343L235.16 150.844L235.15 150.86L235.141 150.877L237.758 152.343ZM249.79 139.287L251.637 141.651L255.465 138.661L251.078 136.577L249.79 139.287ZM233.15 125.207L230.665 126.887L230.675 126.902L230.686 126.918L233.15 125.207ZM233.15 79.127L230.696 77.4022L230.691 77.409L230.686 77.4158L233.15 79.127ZM250.558 65.047L251.74 67.8044L251.756 67.7978L251.771 67.7911L250.558 65.047ZM304.318 65.303L303.053 68.0232L304.151 68.534L305.296 68.1391L304.318 65.303ZM341.438 52.503L344.407 52.0677L343.881 48.4872L340.46 49.6669L341.438 52.503ZM344.254 71.703V74.703H347.726L347.223 71.2677L344.254 71.703ZM314.302 71.703V68.703H306.28L312.334 73.9668L314.302 71.703ZM323.518 84.503L320.766 85.6958L320.782 85.734L320.8 85.7717L323.518 84.503ZM320.446 125.463L317.992 123.738L317.976 123.761L317.961 123.783L320.446 125.463ZM303.294 139.799L304.476 142.556L304.504 142.545L304.531 142.532L303.294 139.799ZM266.43 143.895L266.058 146.872L266.058 146.872L266.43 143.895ZM258.494 142.359L259.267 139.46L257.94 139.106L256.804 139.88L258.494 142.359ZM250.302 150.295L247.758 148.705L247.722 148.764L247.688 148.824L250.302 150.295ZM251.582 166.935L249.63 169.213L249.669 169.246L249.708 169.278L251.582 166.935ZM327.87 178.711L325.983 181.043L325.983 181.043L327.87 178.711ZM291.774 133.143L290.387 130.483L290.362 130.496L290.338 130.509L291.774 133.143ZM301.246 122.903L303.93 124.245L303.939 124.226L303.948 124.207L301.246 122.903ZM301.246 81.943L298.545 83.2473L298.554 83.266L298.563 83.2846L301.246 81.943ZM291.774 71.447L290.338 74.0807L290.362 74.094L290.387 74.1068L291.774 71.447ZM252.606 81.943L255.29 83.2846L255.299 83.266L255.308 83.2473L252.606 81.943ZM252.606 122.903L249.905 124.207L249.914 124.226L249.923 124.245L252.606 122.903ZM262.078 133.143L263.466 130.483L263.466 130.483L262.078 133.143ZM335.622 204.311C335.622 217.112 330.966 226.559 321.779 233.099L325.258 237.987C336.21 230.191 341.622 218.817 341.622 204.311H335.622ZM321.732 233.133C312.533 239.953 299.426 243.551 282.046 243.551V249.551C300.166 249.551 314.706 245.811 325.305 237.953L321.732 233.133ZM282.046 243.551C262.822 243.551 249.369 240.156 241.102 233.916L237.487 238.706C247.311 246.119 262.359 249.551 282.046 249.551V243.551ZM241.072 233.895C232.686 227.723 228.52 220.092 228.213 210.867L222.216 211.067C222.591 222.322 227.812 231.587 237.516 238.727L241.072 233.895ZM225.81 213.907L244.754 210.067L243.562 204.187L224.618 208.027L225.81 213.907ZM241.166 206.909C240.433 216.991 243.099 225.415 249.461 231.776L253.704 227.534C248.801 222.631 246.518 216.036 247.15 207.345L241.166 206.909ZM249.461 231.776C256.127 238.443 267.307 241.359 282.046 241.359V235.359C267.773 235.359 258.643 232.473 253.704 227.534L249.461 231.776ZM282.046 241.359C295.352 241.359 306.362 238.913 314.838 233.754L311.719 228.628C304.493 233.027 294.682 235.359 282.046 235.359V241.359ZM314.814 233.768C323.729 228.457 328.31 220.489 328.31 210.199H322.31C322.31 218.341 318.871 224.367 311.743 228.614L314.814 233.768ZM328.31 210.199C328.31 202.626 325.707 196.519 320.184 192.428L316.613 197.25C320.306 199.986 322.31 204.118 322.31 210.199H328.31ZM320.184 192.428C314.778 188.424 306.367 186.719 295.614 186.719V192.719C306.025 192.719 312.803 194.427 316.613 197.25L320.184 192.428ZM295.614 186.719H265.15V192.719H295.614V186.719ZM265.15 186.719C253.979 186.719 246.995 184.357 243.246 180.469L238.927 184.633C244.394 190.303 253.453 192.719 265.15 192.719V186.719ZM243.282 180.507C239.117 176.034 237.174 171.28 237.174 166.167H231.174C231.174 173 233.839 179.17 238.891 184.595L243.282 180.507ZM237.174 166.167C237.174 161.724 238.241 157.622 240.376 153.809L235.141 150.877C232.498 155.597 231.174 160.711 231.174 166.167H237.174ZM240.357 153.842C242.669 149.834 246.379 145.759 251.637 141.651L247.943 136.923C242.279 141.348 237.967 145.977 235.16 150.844L240.357 153.842ZM251.078 136.577C244.718 133.557 239.579 129.205 235.614 123.496L230.686 126.918C235.255 133.497 241.209 138.532 248.503 141.997L251.078 136.577ZM235.636 123.527C231.757 117.786 229.75 110.8 229.75 102.423H223.75C223.75 111.795 226.01 119.998 230.665 126.887L235.636 123.527ZM229.75 102.423C229.75 93.4914 231.777 86.3649 235.614 80.8382L230.686 77.4158C225.991 84.1772 223.75 92.5813 223.75 102.423H229.75ZM235.605 80.8518C239.719 74.9979 245.078 70.6595 251.74 67.8044L249.377 62.2896C241.702 65.5785 235.457 70.6268 230.696 77.4022L235.605 80.8518ZM251.771 67.7911C258.689 64.7343 266.377 63.183 274.878 63.183V57.183C265.631 57.183 257.105 58.8744 249.346 62.3029L251.771 67.7911ZM274.878 63.183H279.23V57.183H274.878V63.183ZM279.23 63.183C288.249 63.183 296.169 64.8214 303.053 68.0232L305.584 62.5828C297.79 58.958 288.985 57.183 279.23 57.183V63.183ZM305.296 68.1391L342.416 55.3391L340.46 49.6669L303.34 62.4669L305.296 68.1391ZM338.47 52.9383L341.286 72.1384L347.223 71.2677L344.407 52.0677L338.47 52.9383ZM344.254 68.703H314.302V74.703H344.254V68.703ZM312.334 73.9668C315.897 77.0651 318.712 80.9564 320.766 85.6958L326.271 83.3102C323.887 77.8096 320.559 73.1675 316.271 69.4392L312.334 73.9668ZM320.8 85.7717C322.969 90.4204 324.102 95.945 324.102 102.423H330.102C330.102 95.2477 328.846 88.8256 326.237 83.2343L320.8 85.7717ZM324.102 102.423C324.102 110.96 322.016 118.011 317.992 123.738L322.901 127.188C327.751 120.286 330.102 111.977 330.102 102.423H324.102ZM317.961 123.783C314.015 129.623 308.737 134.044 302.058 137.066L304.531 142.532C312.188 139.069 318.344 133.933 322.932 127.143L317.961 123.783ZM302.113 137.042C295.366 139.933 287.755 141.407 279.23 141.407V147.407C288.455 147.407 296.887 145.809 304.476 142.556L302.113 137.042ZM279.23 141.407H274.878V147.407H279.23V141.407ZM274.878 141.407C272.095 141.407 269.403 141.243 266.802 140.918L266.058 146.872C268.919 147.229 271.859 147.407 274.878 147.407V141.407ZM266.802 140.918C264.202 140.593 261.691 140.107 259.267 139.46L257.721 145.258C260.418 145.977 263.198 146.514 266.058 146.872L266.802 140.918ZM256.804 139.88C252.838 142.585 249.756 145.509 247.758 148.705L252.846 151.885C254.262 149.62 256.642 147.253 260.184 144.838L256.804 139.88ZM247.688 148.824C245.92 151.967 244.998 155.286 244.998 158.743H250.998C250.998 156.398 251.613 154.084 252.917 151.766L247.688 148.824ZM244.998 158.743C244.998 162.948 246.515 166.542 249.63 169.213L253.535 164.657C251.872 163.232 250.998 161.364 250.998 158.743H244.998ZM249.708 169.278C253.053 171.953 257.888 173.007 263.614 173.007V167.007C258.418 167.007 255.232 166.013 253.456 164.592L249.708 169.278ZM263.614 173.007H296.894V167.007H263.614V173.007ZM296.894 173.007C309.998 173.007 319.547 175.833 325.983 181.043L329.758 176.379C321.858 169.984 310.757 167.007 296.894 167.007V173.007ZM325.983 181.043C332.292 186.15 335.622 193.731 335.622 204.311H341.622C341.622 192.363 337.785 182.877 329.758 176.379L325.983 181.043ZM279.23 139.215C284.3 139.215 288.982 138.083 293.211 135.777L290.338 130.509C287.058 132.299 283.376 133.215 279.23 133.215V139.215ZM293.162 135.803C297.755 133.406 301.318 129.469 303.93 124.245L298.563 121.561C296.396 125.895 293.644 128.784 290.387 130.483L293.162 135.803ZM303.948 124.207C306.615 118.682 307.83 111.343 307.83 102.423H301.83C301.83 110.911 300.656 117.225 298.545 121.599L303.948 124.207ZM307.83 102.423C307.83 93.3531 306.622 85.9851 303.93 80.6014L298.563 83.2846C300.65 87.4582 301.83 93.7436 301.83 102.423H307.83ZM303.948 80.6388C301.347 75.2506 297.786 71.1997 293.162 68.7873L290.387 74.1068C293.613 75.7903 296.367 78.7367 298.545 83.2473L303.948 80.6388ZM293.211 68.8133C288.982 66.5065 284.3 65.375 279.23 65.375V71.375C283.376 71.375 287.058 72.2915 290.338 74.0807L293.211 68.8133ZM279.23 65.375H274.878V71.375H279.23V65.375ZM274.878 65.375C269.808 65.375 265.062 66.5065 260.691 68.7873L263.466 74.1068C266.945 72.2915 270.733 71.375 274.878 71.375V65.375ZM260.691 68.7873C256.067 71.1997 252.506 75.2506 249.905 80.6388L255.308 83.2473C257.486 78.7367 260.239 75.7903 263.466 74.1068L260.691 68.7873ZM249.923 80.6014C247.231 85.9851 246.022 93.3531 246.022 102.423H252.022C252.022 93.7436 253.203 87.4582 255.29 83.2846L249.923 80.6014ZM246.022 102.423C246.022 111.343 247.237 118.682 249.905 124.207L255.308 121.599C253.197 117.225 252.022 110.911 252.022 102.423H246.022ZM249.923 124.245C252.535 129.469 256.098 133.406 260.691 135.803L263.466 130.483C260.208 128.784 257.456 125.895 255.29 121.561L249.923 124.245ZM260.691 135.803C265.062 138.084 269.808 139.215 274.878 139.215V133.215C270.733 133.215 266.945 132.298 263.466 130.483L260.691 135.803ZM274.878 139.215H279.23V133.215H274.878V139.215ZM460.744 174.871L458.445 172.944L458.443 172.947L460.744 174.871ZM378.824 174.871L376.509 176.778L376.524 176.797L376.539 176.815L378.824 174.871ZM378.824 77.591L381.126 79.5149L381.133 79.5066L381.14 79.4981L378.824 77.591ZM460.744 77.591L458.429 79.4981L458.444 79.5167L458.459 79.5349L460.744 77.591ZM443.848 80.151L441.386 81.8642L441.407 81.8949L441.429 81.9251L443.848 80.151ZM395.72 80.151L393.283 78.4023L393.276 78.4124L395.72 80.151ZM395.72 172.311L393.258 174.024L393.279 174.055L393.301 174.085L395.72 172.311ZM443.848 172.311L441.411 170.562L441.404 170.572L443.848 172.311ZM472.336 123.415V128.535H478.336V123.415H472.336ZM472.336 128.535C472.336 147.313 467.608 162.013 458.445 172.944L463.043 176.798C473.337 164.519 478.336 148.328 478.336 128.535H472.336ZM458.443 172.947C449.565 183.568 436.833 189.023 419.784 189.023V195.023C438.235 195.023 452.809 189.044 463.046 176.795L458.443 172.947ZM419.784 189.023C402.919 189.023 390.168 183.575 381.109 172.927L376.539 176.815C386.937 189.037 401.493 195.023 419.784 195.023V189.023ZM381.14 172.964C372.138 162.032 367.488 147.325 367.488 128.535H361.488C361.488 148.316 366.396 164.499 376.509 176.778L381.14 172.964ZM367.488 128.535V123.415H361.488V128.535H367.488ZM367.488 123.415C367.488 104.801 372.135 90.2725 381.126 79.5149L376.523 75.6671C366.399 87.7789 361.488 103.8 361.488 123.415H367.488ZM381.14 79.4981C390.022 68.7126 402.752 63.183 419.784 63.183V57.183C401.318 57.183 386.741 63.2587 376.509 75.6839L381.14 79.4981ZM419.784 63.183C436.817 63.183 449.546 68.7126 458.429 79.4981L463.06 75.6839C452.828 63.2587 438.25 57.183 419.784 57.183V63.183ZM458.459 79.5349C467.611 90.2923 472.336 104.813 472.336 123.415H478.336C478.336 103.788 473.334 87.759 463.029 75.6471L458.459 79.5349ZM455.296 118.295C455.296 100.383 452.485 86.8548 446.268 78.3769L441.429 81.9251C446.476 88.8072 449.296 100.708 449.296 118.295H455.296ZM446.311 78.4378C440.223 69.6857 431.226 65.375 419.784 65.375V71.375C429.506 71.375 436.551 74.915 441.386 81.8642L446.311 78.4378ZM419.784 65.375C408.495 65.375 399.527 69.6975 393.283 78.4023L398.158 81.8997C403.177 74.9032 410.253 71.375 419.784 71.375V65.375ZM393.276 78.4124C387.252 86.8825 384.528 100.394 384.528 118.295H390.528C390.528 100.697 393.266 88.7795 398.165 81.8896L393.276 78.4124ZM384.528 118.295V133.655H390.528V118.295H384.528ZM384.528 133.655C384.528 151.729 387.254 165.394 393.258 174.024L398.183 170.598C393.264 163.527 390.528 151.421 390.528 133.655H384.528ZM393.301 174.085C399.557 182.615 408.521 186.831 419.784 186.831V180.831C410.226 180.831 403.148 177.367 398.14 170.537L393.301 174.085ZM419.784 186.831C431.199 186.831 440.194 182.627 446.293 174.05L441.404 170.572C436.581 177.355 429.533 180.831 419.784 180.831V186.831ZM446.286 174.06C452.483 165.421 455.296 151.74 455.296 133.655H449.296C449.296 151.41 446.477 163.5 441.411 170.562L446.286 174.06ZM455.296 133.655V118.295H449.296V133.655H455.296Z" fill="black" mask="url(#path-1-outside-1_16_2)"/>
</svg>
